<mxfile host="app.diagrams.net" modified="2021-09-23T18:32:35.811Z" agent="5.0 (Windows NT 10.0; Win64; x64) AppleWebKit/537.36 (KHTML, like Gecko) Chrome/93.0.4577.82 Safari/537.36 Edg/93.0.961.52" etag="6V0oGAI9vEjMUY8Vzekz" version="15.2.9" type="github">
  <diagram id="HRANH3u2XZls_gorqm9L" name="Page-1">
    <mxGraphModel dx="1422" dy="762" grid="1" gridSize="10" guides="1" tooltips="1" connect="1" arrows="1" fold="1" page="1" pageScale="1" pageWidth="850" pageHeight="1100" math="0" shadow="0">
      <root>
        <mxCell id="0" />
        <mxCell id="1" parent="0" />
        <mxCell id="yjDHvjiuVbuRtsxtX4dv-1" value="Actor" style="shape=umlActor;verticalLabelPosition=bottom;verticalAlign=top;html=1;outlineConnect=0;" vertex="1" parent="1">
          <mxGeometry x="110" y="330" width="30" height="60" as="geometry" />
        </mxCell>
        <mxCell id="yjDHvjiuVbuRtsxtX4dv-4" value="UserSign" style="rounded=0;whiteSpace=wrap;html=1;" vertex="1" parent="1">
          <mxGeometry x="370" y="180" width="120" height="60" as="geometry" />
        </mxCell>
        <mxCell id="yjDHvjiuVbuRtsxtX4dv-7" value="CreateGame" style="rounded=0;whiteSpace=wrap;html=1;fillColor=#ffe6cc;strokeColor=#d79b00;" vertex="1" parent="1">
          <mxGeometry x="370" y="350" width="120" height="60" as="geometry" />
        </mxCell>
        <mxCell id="yjDHvjiuVbuRtsxtX4dv-8" value="JoinGame" style="rounded=0;whiteSpace=wrap;html=1;fillColor=#ffe6cc;strokeColor=#d79b00;" vertex="1" parent="1">
          <mxGeometry x="370" y="410" width="120" height="60" as="geometry" />
        </mxCell>
        <mxCell id="yjDHvjiuVbuRtsxtX4dv-9" value="Auth" style="rounded=0;whiteSpace=wrap;html=1;" vertex="1" parent="1">
          <mxGeometry x="370" y="120" width="120" height="60" as="geometry" />
        </mxCell>
        <mxCell id="yjDHvjiuVbuRtsxtX4dv-11" value="sendGuessNumber" style="rounded=0;whiteSpace=wrap;html=1;fillColor=#ffe6cc;strokeColor=#d79b00;" vertex="1" parent="1">
          <mxGeometry x="370" y="520" width="120" height="60" as="geometry" />
        </mxCell>
        <mxCell id="yjDHvjiuVbuRtsxtX4dv-14" value="" style="endArrow=classic;html=1;exitX=1;exitY=0.5;exitDx=0;exitDy=0;entryX=0;entryY=0;entryDx=0;entryDy=27.5;entryPerimeter=0;" edge="1" parent="1" source="yjDHvjiuVbuRtsxtX4dv-9">
          <mxGeometry width="50" height="50" relative="1" as="geometry">
            <mxPoint x="390" y="480" as="sourcePoint" />
            <mxPoint x="690" y="107.5" as="targetPoint" />
          </mxGeometry>
        </mxCell>
        <mxCell id="yjDHvjiuVbuRtsxtX4dv-15" value="" style="endArrow=classic;html=1;exitX=1;exitY=0.5;exitDx=0;exitDy=0;entryX=0;entryY=0.5;entryDx=0;entryDy=0;" edge="1" parent="1" source="yjDHvjiuVbuRtsxtX4dv-7" target="yjDHvjiuVbuRtsxtX4dv-19">
          <mxGeometry width="50" height="50" relative="1" as="geometry">
            <mxPoint x="390" y="490" as="sourcePoint" />
            <mxPoint x="700" y="365" as="targetPoint" />
          </mxGeometry>
        </mxCell>
        <mxCell id="yjDHvjiuVbuRtsxtX4dv-16" value="pda account" style="shape=cylinder3;whiteSpace=wrap;html=1;boundedLbl=1;backgroundOutline=1;size=15;" vertex="1" parent="1">
          <mxGeometry x="760" y="460" width="60" height="80" as="geometry" />
        </mxCell>
        <mxCell id="yjDHvjiuVbuRtsxtX4dv-17" value="" style="endArrow=classic;html=1;exitX=0.75;exitY=1;exitDx=0;exitDy=0;entryX=0.5;entryY=0;entryDx=0;entryDy=0;entryPerimeter=0;" edge="1" parent="1" source="yjDHvjiuVbuRtsxtX4dv-19" target="yjDHvjiuVbuRtsxtX4dv-16">
          <mxGeometry width="50" height="50" relative="1" as="geometry">
            <mxPoint x="708.6999999999998" y="354.3499999999999" as="sourcePoint" />
            <mxPoint x="450" y="360" as="targetPoint" />
          </mxGeometry>
        </mxCell>
        <mxCell id="yjDHvjiuVbuRtsxtX4dv-19" value="game SmartContract" style="rounded=0;whiteSpace=wrap;html=1;" vertex="1" parent="1">
          <mxGeometry x="700" y="350" width="120" height="60" as="geometry" />
        </mxCell>
        <mxCell id="yjDHvjiuVbuRtsxtX4dv-20" value="" style="endArrow=classic;html=1;exitX=1;exitY=0.5;exitDx=0;exitDy=0;entryX=0;entryY=0.75;entryDx=0;entryDy=0;" edge="1" parent="1" source="yjDHvjiuVbuRtsxtX4dv-8" target="yjDHvjiuVbuRtsxtX4dv-19">
          <mxGeometry width="50" height="50" relative="1" as="geometry">
            <mxPoint x="400" y="400" as="sourcePoint" />
            <mxPoint x="450" y="350" as="targetPoint" />
          </mxGeometry>
        </mxCell>
        <mxCell id="yjDHvjiuVbuRtsxtX4dv-21" value="secretNumberPayload" style="rounded=0;whiteSpace=wrap;html=1;fillColor=#ffe6cc;strokeColor=#d79b00;" vertex="1" parent="1">
          <mxGeometry x="370" y="580" width="120" height="60" as="geometry" />
        </mxCell>
        <mxCell id="yjDHvjiuVbuRtsxtX4dv-22" value="" style="endArrow=classic;html=1;exitX=1.017;exitY=0.383;exitDx=0;exitDy=0;exitPerimeter=0;entryX=0;entryY=1;entryDx=0;entryDy=0;" edge="1" parent="1" source="yjDHvjiuVbuRtsxtX4dv-11" target="yjDHvjiuVbuRtsxtX4dv-19">
          <mxGeometry width="50" height="50" relative="1" as="geometry">
            <mxPoint x="400" y="400" as="sourcePoint" />
            <mxPoint x="450" y="350" as="targetPoint" />
          </mxGeometry>
        </mxCell>
        <mxCell id="yjDHvjiuVbuRtsxtX4dv-24" value="" style="endArrow=classic;html=1;exitX=1.017;exitY=0.4;exitDx=0;exitDy=0;exitPerimeter=0;entryX=0.25;entryY=1;entryDx=0;entryDy=0;" edge="1" parent="1" source="yjDHvjiuVbuRtsxtX4dv-21" target="yjDHvjiuVbuRtsxtX4dv-19">
          <mxGeometry width="50" height="50" relative="1" as="geometry">
            <mxPoint x="400" y="400" as="sourcePoint" />
            <mxPoint x="450" y="350" as="targetPoint" />
          </mxGeometry>
        </mxCell>
        <mxCell id="yjDHvjiuVbuRtsxtX4dv-25" value="Actor" style="shape=umlActor;verticalLabelPosition=bottom;verticalAlign=top;html=1;outlineConnect=0;" vertex="1" parent="1">
          <mxGeometry x="110" y="460" width="30" height="60" as="geometry" />
        </mxCell>
        <mxCell id="yjDHvjiuVbuRtsxtX4dv-26" value="Client" style="rounded=0;whiteSpace=wrap;html=1;" vertex="1" parent="1">
          <mxGeometry x="180" y="240" width="90" height="310" as="geometry" />
        </mxCell>
        <mxCell id="yjDHvjiuVbuRtsxtX4dv-29" value="" style="endArrow=classic;html=1;exitX=1;exitY=0.3333333333333333;exitDx=0;exitDy=0;exitPerimeter=0;" edge="1" parent="1" source="yjDHvjiuVbuRtsxtX4dv-1">
          <mxGeometry width="50" height="50" relative="1" as="geometry">
            <mxPoint x="470" y="400" as="sourcePoint" />
            <mxPoint x="178" y="350" as="targetPoint" />
          </mxGeometry>
        </mxCell>
        <mxCell id="yjDHvjiuVbuRtsxtX4dv-30" value="" style="endArrow=classic;html=1;entryX=0.011;entryY=0.777;entryDx=0;entryDy=0;entryPerimeter=0;exitX=1;exitY=0.3333333333333333;exitDx=0;exitDy=0;exitPerimeter=0;" edge="1" parent="1" source="yjDHvjiuVbuRtsxtX4dv-25" target="yjDHvjiuVbuRtsxtX4dv-26">
          <mxGeometry width="50" height="50" relative="1" as="geometry">
            <mxPoint x="470" y="400" as="sourcePoint" />
            <mxPoint x="520" y="350" as="targetPoint" />
          </mxGeometry>
        </mxCell>
        <mxCell id="yjDHvjiuVbuRtsxtX4dv-34" value="" style="rounded=0;whiteSpace=wrap;html=1;fillColor=#ffe6cc;strokeColor=#d79b00;" vertex="1" parent="1">
          <mxGeometry x="30" y="670" width="120" height="60" as="geometry" />
        </mxCell>
        <mxCell id="yjDHvjiuVbuRtsxtX4dv-35" value="All this kind of services need UserSign service authorization" style="text;html=1;strokeColor=none;fillColor=none;align=center;verticalAlign=middle;whiteSpace=wrap;rounded=0;" vertex="1" parent="1">
          <mxGeometry x="180" y="690" width="40" height="20" as="geometry" />
        </mxCell>
        <mxCell id="yjDHvjiuVbuRtsxtX4dv-36" value="&lt;span&gt;Phantom&lt;/span&gt;&lt;br&gt;&lt;span&gt;Wallet&lt;/span&gt;" style="rounded=0;whiteSpace=wrap;html=1;" vertex="1" parent="1">
          <mxGeometry x="690" y="80" width="120" height="60" as="geometry" />
        </mxCell>
      </root>
    </mxGraphModel>
  </diagram>
</mxfile>
